# xmcd
#
# Track frame offsets: 
#        150
#        25024
#        50707
#        76370
#        92417
#        108526
#        126294
#        154960
#        184763
#        203343
#
# Disc length: 2893 seconds
#
# Revision: 2
# Processed by: cddbd v1.5.2PL0 Copyright (c) Steve Scherf et al.
# Submitted via: ExactAudioCopy v0.99pb4
#
DISCID=7a0b4b0a
DTITLE=Louis Armstrong And The All Stars - Satchmo At Pasadena
DYEAR=1951
DGENRE=Jazz
TTITLE0=Indiana
TTITLE1=Baby It's Cold Outside
TTITLE2=Way Down Yonder In New Orleans
TTITLE3=Star Dust
TTITLE4=The Hucklebuck
TTITLE5=Honeysuckle Rose
TTITLE6=Just You, Just Me
TTITLE7=My Monday Date
TTITLE8=You Can Depend On Me
TTITLE9=That's A Plenty
EXTD=YEAR: 1951
EXTT0=
EXTT1=
EXTT2=
EXTT3=
EXTT4=
EXTT5=
EXTT6=
EXTT7=
EXTT8=
EXTT9=
PLAYORDER=
